# xmcd
#
# Track frame offsets:
#	150
#	18885
#	37503
#	57714
#	69472
#	89141
#	103765
#	120796
#	141854
#	160181
#
# Disc length: 2466 seconds
#
# Revision: 1
# Processed by: cddbd v1.5.2PL0 Copyright (c) Steve Scherf et al.
# Submitted via: EasyCDDAExtractor 15.3.0.1
#
DISCID=7d09a00a
DTITLE=Lissette and Chucho - Fue La Musica
DYEAR=2010
DGENRE=Latin
TTITLE0=Lissette and Chucho - Cosas De Casa
TTITLE1=Lissette - Palabras Del Alma
TTITLE2=Chucho - Magia Blanca
TTITLE3=Lissette and Chucho - Franqueza
TTITLE4=Lissette - Poema 20
TTITLE5=Chucho - Jamas Te Olvidare
TTITLE6=Lissette and Chucho - Acompañame
TTITLE7=Lissette - Corazon Suicida
TTITLE8=Chucho - Supe De Tu Amor
TTITLE9=Lissette and Chucho - Fue La Musica
EXTD=
EXTT0=
EXTT1=
EXTT2=
EXTT3=
EXTT4=
EXTT5=
EXTT6=
EXTT7=
EXTT8=
EXTT9=
PLAYORDER=
